<?xml version="1.0" encoding="UTF-8" standalone="no"?>
<svg xmlns="http://www.w3.org/2000/svg" width="128" height="128" viewBox="0 0 128 128">
  <!-- Background Circle -->
  <circle cx="64" cy="64" r="60" fill="#4a6cf7" />
  
  <!-- Clock Face -->
  <circle cx="64" cy="64" r="52" fill="#ffffff" />
  
  <!-- Clock Ticks -->
  <g stroke="#333333" stroke-width="2">
    <!-- 12, 3, 6, 9 o'clock marks -->
    <line x1="64" y1="20" x2="64" y2="28" />
    <line x1="108" y1="64" x2="100" y2="64" />
    <line x1="64" y1="108" x2="64" y2="100" />
    <line x1="20" y1="64" x2="28" y2="64" />
    
    <!-- Other hour marks -->
    <line x1="92" y1="36" x2="86" y2="42" />
    <line x1="92" y1="92" x2="86" y2="86" />
    <line x1="36" y1="92" x2="42" y2="86" />
    <line x1="36" y1="36" x2="42" y2="42" />
  </g>
  
  <!-- Clock Hands -->
  <g stroke-linecap="round">
    <!-- Hour Hand -->
    <line x1="64" y1="64" x2="64" y2="40" stroke="#333333" stroke-width="4" />
    
    <!-- Minute Hand -->
    <line x1="64" y1="64" x2="88" y2="64" stroke="#333333" stroke-width="3" />
    
    <!-- Center Dot -->
    <circle cx="64" cy="64" r="4" fill="#333333" />
  </g>
  
  <!-- Screenshot Frame -->
  <rect x="40" y="76" width="48" height="36" rx="4" fill="#4a6cf7" stroke="#333333" stroke-width="2" />
  
  <!-- Screenshot Content (simplified) -->
  <rect x="44" y="80" width="40" height="28" rx="2" fill="#ffffff" />
  <line x1="48" y1="86" x2="80" y2="86" stroke="#cccccc" stroke-width="2" />
  <line x1="48" y1="94" x2="70" y2="94" stroke="#cccccc" stroke-width="2" />
  <line x1="48" y1="102" x2="76" y2="102" stroke="#cccccc" stroke-width="2" />
  
  <!-- Time Travel Arrow -->
  <path d="M 88,50 A 30,30 0 0 1 88,78" fill="none" stroke="#4a6cf7" stroke-width="6" stroke-linecap="round" />
  <polygon points="96,78 88,86 80,78" fill="#4a6cf7" />
</svg>
